<svg xmlns="http://www.w3.org/2000/svg" width="850" height="850" viewBox="0 0 850 850" version="1.1">
	<path d="M 389 132.098 C 359.707 134.168, 335.617 139.726, 298.500 152.979 C 293.682 154.700, 269.438 166.313, 268.182 167.502 C 267.566 168.084, 271.006 178.344, 272.883 181.527 L 274.783 184.747 269.477 195.623 C 256.234 222.768, 247.594 255.969, 244.007 293.500 C 242.738 306.779, 242.763 343.503, 244.051 358.500 C 250.193 429.990, 274.714 497.726, 312.969 548.870 C 336.642 580.520, 364.450 605.077, 396.194 622.366 C 405.903 627.654, 422.355 635, 424.488 635 C 426.828 635, 449.789 622.201, 463 613.534 C 483.201 600.280, 497.339 588.662, 516.585 569.503 C 536.059 550.118, 547.034 536.978, 560.853 516.500 C 618.847 430.565, 640.851 321.400, 618.300 231.506 C 612.620 208.866, 612.444 208.531, 601.369 199.412 C 578.179 180.316, 553.747 165.631, 522.856 152.222 C 509.137 146.267, 475.887 137.500, 455.872 134.561 C 439.049 132.090, 437.766 132.244, 434.547 137.108 C 432.109 140.792, 431.515 141.153, 428.789 140.608 C 427.118 140.274, 424.015 140, 421.895 140 C 418.425 140, 417.843 139.613, 416.063 136.123 C 414.975 133.991, 413.354 131.966, 412.461 131.623 C 410.525 130.881, 404.508 131.002, 389 132.098 M 240 157.149 C 222.105 168.119, 209.251 177.898, 193 192.908 L 183.500 201.682 180 200.417 C 178.075 199.721, 176.021 199.118, 175.435 199.076 C 174.050 198.977, 161.069 223.944, 161.162 226.527 C 161.202 227.612, 156.904 235, 151.612 242.943 C 146.320 250.887, 138.730 264.012, 134.745 272.109 L 127.500 286.831 123.065 287.166 L 118.631 287.500 113.746 302.873 L 108.861 318.246 111.516 321.017 L 114.172 323.789 111.141 337.144 C 107.961 351.157, 105.543 366.262, 104.409 379.191 C 103.779 386.378, 103.858 386.856, 105.617 386.487 C 106.653 386.270, 112 385.373, 117.500 384.492 C 123 383.612, 128.512 382.642, 129.750 382.338 L 132 381.783 132 396.892 C 132 408.317, 131.695 411.998, 130.750 411.991 C 130.063 411.985, 125.225 411.137, 120 410.105 C 114.775 409.073, 108.795 407.928, 106.710 407.561 L 102.920 406.894 103.511 416.197 C 104.583 433.087, 106.043 446.348, 108.092 457.817 C 110.383 470.640, 110.847 472.213, 112.105 471.435 C 112.597 471.131, 113.004 471.471, 113.009 472.191 C 113.013 472.911, 113.685 479.125, 114.500 486 C 115.315 492.875, 115.987 498.837, 115.991 499.250 C 115.996 499.663, 116.596 500, 117.325 500 C 118.092 500, 120.243 504.313, 122.436 510.250 C 126.326 520.778, 137.671 545.141, 140.124 548.234 C 141.388 549.827, 142.493 549.215, 153.660 540.734 C 160.348 535.655, 170.647 527.450, 176.547 522.500 C 182.447 517.550, 188.529 512.481, 190.063 511.236 L 192.852 508.971 200.481 521.630 C 204.677 528.593, 207.748 534.600, 207.305 534.980 C 206.862 535.360, 200.650 537.828, 193.500 540.465 C 181.464 544.903, 148.045 558.687, 147.074 559.612 C 146.484 560.175, 158.638 578.004, 165.771 587.036 C 172.189 595.163, 184.863 609.289, 186.240 609.850 C 186.712 610.042, 187.625 608.805, 188.268 607.100 C 188.912 605.395, 189.754 604, 190.141 604 C 190.527 604, 194.763 608.340, 199.554 613.645 L 208.266 623.291 205.982 625.014 L 203.698 626.736 211.162 632.667 C 227.088 645.323, 243.793 655.981, 261.250 664.624 C 266.613 667.279, 271 669.764, 271 670.146 C 271 670.528, 269.538 671.139, 267.750 671.503 C 263.106 672.448, 257.899 674.063, 255 675.458 C 253.625 676.119, 251.293 676.541, 249.818 676.395 C 248.343 676.250, 246.623 676.749, 245.995 677.506 C 245.367 678.262, 244.230 678.642, 243.468 678.349 C 242.656 678.038, 241.339 678.995, 240.291 680.659 C 238.516 683.474, 236.596 684.134, 234.322 682.709 C 232.887 681.810, 231.687 685.021, 232.584 687.359 C 233.454 689.626, 231.792 689.411, 228.514 686.833 L 225.759 684.665 226.517 687.083 C 226.933 688.412, 227.522 690.175, 227.824 691 C 228.297 692.288, 228.136 692.306, 226.687 691.128 C 225.430 690.105, 225 690.068, 225 690.985 C 225 691.744, 224.332 691.958, 223.252 691.543 C 222.119 691.108, 222.496 691.909, 224.324 693.817 C 227.908 697.557, 236.632 702.346, 238.152 701.406 C 238.837 700.983, 239.039 701.127, 238.648 701.760 C 237.756 703.203, 240.095 703.938, 242.178 702.868 C 244.233 701.813, 247.232 702.815, 246.340 704.259 C 245.983 704.837, 246.163 705.018, 246.739 704.661 C 247.315 704.305, 249.727 704.698, 252.099 705.535 C 254.471 706.372, 257.017 706.824, 257.757 706.540 C 258.498 706.255, 258.858 706.420, 258.559 706.905 C 258.259 707.391, 259.023 707.794, 260.257 707.802 C 266.515 707.843, 274.041 709.558, 275.088 711.182 C 275.816 712.311, 283.405 693.096, 291.155 670.500 C 294.816 659.829, 297.437 653.618, 298.196 653.818 C 298.861 653.992, 304.016 656.900, 309.650 660.278 C 316.057 664.120, 319.590 666.811, 319.082 667.461 C 306.982 682.921, 284.157 715.641, 287.133 713.259 C 287.986 712.576, 288.886 712.220, 289.134 712.467 C 289.381 712.714, 291.815 713.125, 294.542 713.379 C 297.269 713.633, 301.975 714.194, 305 714.625 C 308.025 715.056, 310.813 715.324, 311.195 715.222 C 311.578 715.120, 316.395 715.710, 321.901 716.533 C 327.406 717.356, 332.268 717.940, 332.705 717.830 C 333.142 717.720, 337.775 718.017, 343 718.490 C 348.225 718.963, 354.525 719.430, 357 719.527 C 394.295 721.001, 415.625 721.496, 441 721.474 C 469.793 721.450, 515.765 720.263, 516.979 719.513 C 517.285 719.324, 522.252 718.882, 528.017 718.530 C 533.783 718.178, 539.518 717.640, 540.763 717.334 C 542.008 717.027, 543.777 717.389, 544.695 718.138 C 548.359 721.127, 527.070 691.578, 510.797 671.089 C 508.434 668.113, 506.950 665.514, 507.500 665.314 C 508.050 665.114, 513.206 662.052, 518.958 658.509 L 529.417 652.067 533.211 662.783 C 535.297 668.677, 540.941 683.296, 545.752 695.268 L 554.500 717.036 557.269 716.434 C 558.792 716.103, 561.942 715.668, 564.269 715.467 C 566.596 715.265, 568.500 715.041, 568.500 714.969 C 568.500 714.833, 569.439 714.715, 579.500 713.591 C 582.800 713.222, 587.198 712.468, 589.273 711.916 C 591.348 711.363, 593.486 711.182, 594.023 711.514 C 594.560 711.846, 595 711.656, 595 711.090 C 595 710.525, 595.597 710.292, 596.328 710.572 C 597.058 710.852, 598.912 710.604, 600.449 710.019 C 602.165 709.367, 603.679 709.312, 604.372 709.877 C 605.079 710.453, 607.687 710.116, 611.361 708.972 C 614.584 707.969, 617.921 707.416, 618.775 707.744 C 619.790 708.133, 620.080 707.938, 619.612 707.181 C 619.154 706.440, 619.422 706.225, 620.357 706.584 C 621.161 706.892, 625.284 705.543, 629.520 703.586 C 634.404 701.330, 636.724 700.631, 635.861 701.677 C 634.629 703.171, 634.716 703.212, 636.778 702.114 C 638.038 701.442, 638.751 700.406, 638.373 699.795 C 637.958 699.123, 638.150 698.974, 638.864 699.416 C 640.173 700.225, 645.642 697.158, 648.478 694.024 C 650.237 692.081, 650.424 692.066, 652.412 693.708 C 653.561 694.656, 651.851 692.672, 648.614 689.299 C 645.175 685.716, 642.161 683.385, 641.364 683.691 C 640.614 683.978, 640 683.668, 640 683 C 640 682.332, 639.337 682.040, 638.526 682.351 C 637.716 682.662, 636.653 682.203, 636.165 681.330 C 635.512 680.164, 635.080 680.062, 634.534 680.945 C 634.007 681.797, 633.358 681.528, 632.302 680.021 C 631.483 678.852, 630.293 678.085, 629.657 678.317 C 629.021 678.549, 627.772 678.107, 626.881 677.334 C 625.991 676.560, 623.741 675.771, 621.881 675.580 C 620.022 675.388, 617.825 674.992, 617 674.699 C 615.348 674.113, 610.350 672.801, 608 672.336 C 603.661 671.478, 601.038 670.936, 596.500 669.957 C 593.750 669.364, 590.260 668.702, 588.745 668.486 C 582.045 667.532, 582.567 666.656, 594.727 658.447 C 601.202 654.076, 607.261 650.500, 608.192 650.500 C 609.122 650.500, 614.859 646.675, 620.939 642 C 629.844 635.153, 631.995 633.009, 631.997 630.975 C 631.999 629.152, 634.118 626.371, 639.616 620.975 C 654.649 606.221, 683 572.290, 683 569.053 C 683 568.146, 661.617 557.343, 642.199 548.442 L 637.898 546.470 646.093 534.485 C 650.599 527.893, 654.430 522.330, 654.604 522.123 C 654.779 521.915, 661.352 527.928, 669.211 535.486 C 677.070 543.043, 685.456 550.840, 687.846 552.812 L 692.191 556.398 694.046 553.949 C 697.374 549.554, 712.686 523.754, 718.497 512.750 C 721.619 506.838, 724.519 502, 724.943 502 C 725.366 502, 729.438 494.950, 733.993 486.333 C 740.754 473.541, 742.072 470.344, 741.176 468.910 C 740.327 467.551, 740.609 465.831, 742.418 461.326 C 745.316 454.112, 747.758 435.281, 748.653 413.250 L 749.313 397 746.613 397 C 745.128 397, 737.581 397.698, 729.842 398.552 C 722.103 399.406, 715.592 399.926, 715.374 399.707 C 714.922 399.256, 716.846 370.821, 717.363 370.303 C 717.549 370.118, 724.293 371.623, 732.351 373.649 C 740.409 375.674, 747.204 377.129, 747.451 376.883 C 748.225 376.109, 744.956 353.016, 742.372 341 C 741.012 334.675, 739.244 324.775, 738.444 319 C 736.051 301.722, 736.212 302.271, 733.221 301.211 C 731.095 300.457, 729.978 298.854, 728.112 293.873 C 721.776 276.968, 705.847 247.738, 703.467 248.651 C 702.067 249.188, 702.132 249.431, 698.900 231.684 L 696.747 219.868 690.624 220.495 L 684.500 221.122 677.017 212.878 C 667.709 202.625, 650.780 188.079, 638.199 179.524 C 632.942 175.950, 628.515 173.152, 628.361 173.306 C 628.207 173.460, 628.991 176.492, 630.103 180.043 C 636.891 201.714, 642.920 234.074, 645.093 260.500 C 647.416 288.742, 645.302 336.189, 640.414 365.500 C 631.434 419.357, 592.541 495.843, 545.579 552 C 513.153 590.775, 479.002 619.024, 444.510 635.602 L 433.500 640.893 427 639.842 C 423.425 639.264, 420.273 638.427, 419.995 637.982 C 419.717 637.538, 414.767 635.398, 408.995 633.227 C 403.223 631.056, 393.802 626.920, 388.060 624.036 C 304.835 582.229, 242.522 482.513, 226.094 364.855 C 217.073 300.236, 223.984 241.335, 250.396 157.750 C 251.743 153.488, 252.543 150.022, 252.173 150.050 C 251.803 150.077, 246.325 153.271, 240 157.149 M 394 155.069 C 346.144 160.285, 303.631 177.188, 277.500 201.390 L 270.500 207.873 280.919 207.275 C 290.897 206.703, 291.305 206.758, 290.565 208.589 C 280.569 233.301, 274.107 257.903, 270.626 284.500 L 269.186 295.500 272.343 298.811 C 280.088 306.932, 300.311 317.477, 317.674 322.447 C 341.101 329.152, 376.146 331.658, 405.500 328.727 C 413.200 327.958, 419.603 327.395, 419.728 327.476 C 419.854 327.557, 419.524 330.283, 418.995 333.534 C 417.972 339.815, 419.295 352.214, 421.054 352.833 C 421.574 353.017, 422 353.580, 422 354.086 C 422 355.322, 427.957 364.757, 427.981 363.559 C 427.991 363.041, 428.563 363.371, 429.250 364.291 C 429.938 365.211, 433.170 367.322, 436.433 368.982 C 443.981 372.821, 453.264 373.192, 459.515 369.903 C 465.362 366.827, 471.732 360.236, 474.683 354.211 C 479.539 344.294, 478.728 330.045, 472.836 321.770 C 471.752 320.247, 471.061 319, 471.301 319 C 474.162 319, 526.814 309.351, 536.112 307.123 C 556.776 302.171, 571.881 295.885, 580.357 288.709 L 584.214 285.443 582.576 271.972 C 580.685 256.409, 577.125 238.087, 573.692 226.250 C 572.377 221.713, 571.612 218, 571.994 218 C 572.375 218, 575.323 218.907, 578.546 220.016 C 581.768 221.125, 584.801 221.900, 585.285 221.738 C 585.769 221.577, 584.035 218.532, 581.431 214.972 C 560.276 186.055, 517.805 164.894, 464 156.462 C 451.594 154.518, 407.167 153.634, 394 155.069 M 635.500 676 C 638.766 679.300, 641.662 682, 641.937 682 C 642.212 682, 639.766 679.300, 636.500 676 C 633.234 672.700, 630.338 670, 630.063 670 C 629.788 670, 632.234 672.700, 635.500 676 M 646.515 692.719 L 644.759 695.500 647.074 693.278 C 648.347 692.056, 649.137 690.804, 648.830 690.497 C 648.522 690.189, 647.481 691.189, 646.515 692.719" stroke="none" fill="black" fill-rule="evenodd"/>
</svg>