<svg xmlns="http://www.w3.org/2000/svg" width="800" height="800" viewBox="0 0 800 800" version="1.1">
	<path d="M 358.173 77.021 C 309.946 80.983, 260.880 99.450, 224.849 127.199 C 212.443 136.753, 194.677 154.144, 184.700 166.500 C 161.444 195.300, 140.763 236.125, 130.547 273.397 C 125.854 290.522, 124.659 299.137, 125.231 311.707 C 125.947 327.428, 128.317 332.960, 143.994 355.500 C 147.721 360.859, 148.100 361.928, 147.533 365.500 C 146.579 371.508, 136.015 390.935, 119.477 417.095 C 91.618 461.162, 85.949 472.896, 86.044 486.302 C 86.123 497.511, 90.517 505.413, 100.716 512.692 C 107.553 517.570, 118.846 522.700, 130.289 526.124 C 134.255 527.311, 138.803 528.939, 140.395 529.741 L 143.289 531.201 142.679 541.850 C 142.343 547.708, 140.928 557.890, 139.534 564.478 C 138.140 571.065, 137 577.893, 137 579.651 C 137 583.956, 140.344 587.692, 148.429 592.421 C 152.082 594.557, 155.249 596.594, 155.468 596.949 C 155.687 597.303, 153.871 600.926, 151.433 605.001 C 144.447 616.675, 144.929 618.774, 157.629 632 C 164.587 639.246, 166.723 644.454, 168.576 658.687 C 171.685 682.575, 174.402 690.074, 183.178 698.989 C 185.860 701.714, 190.954 705.326, 194.731 707.181 L 201.486 710.500 227.993 710.382 C 262.853 710.227, 314.626 706.081, 345.271 700.991 C 368.459 697.139, 379.067 691.990, 393.584 677.541 C 411.360 659.848, 421.818 641.198, 433.959 605.539 C 439.527 589.186, 446.527 565.635, 447.549 559.820 C 448.832 552.524, 440.896 545.214, 432.864 546.291 C 425.688 547.254, 424.353 549.547, 417.026 573.500 C 402.791 620.041, 390.956 644.461, 375.219 659.766 C 366.868 667.888, 357.940 672.203, 343.938 674.885 C 318.930 679.675, 267.032 683.944, 229.646 684.287 C 196.953 684.587, 198.330 685.863, 193.550 650.847 C 191.852 638.413, 188.774 630.144, 182.387 620.855 C 177.123 613.198, 177.214 612.523, 184.313 606.706 C 190.301 601.800, 192.587 596.902, 191.141 592.078 C 189.659 587.131, 185.089 582.993, 175 577.462 C 170.325 574.899, 166.203 572.509, 165.840 572.151 C 165.276 571.595, 169.001 543.719, 170.494 537.321 C 170.874 535.692, 172.375 534.742, 176.436 533.562 C 184.745 531.146, 188.341 525.420, 186.148 518.100 C 184.471 512.501, 181.273 510.095, 173.901 508.882 C 141.471 503.547, 120.969 496.813, 113.553 489.060 C 110.724 486.102, 110.659 485.829, 111.925 482.240 C 113.920 476.587, 122.951 460.740, 136.853 438.500 C 166.980 390.306, 174 375.856, 174 362.042 C 174 354.199, 172.730 351.315, 163.287 337.712 C 150.162 318.804, 148.385 309.052, 153.953 286.475 C 161.719 254.991, 175.065 224.532, 192.064 199.500 C 199.592 188.415, 212.132 173.109, 219.817 165.625 L 224.823 160.749 217.912 154.786 C 214.110 151.506, 211 148.633, 211 148.401 C 211 148.169, 215.039 150.009, 219.977 152.488 L 228.953 156.997 237.227 150.308 C 261.343 130.810, 287.442 118.255, 321.807 109.618 C 347.359 103.196, 354.232 102.529, 395 102.514 C 439.152 102.497, 456.513 104.306, 490.500 112.465 C 539.543 124.238, 580.390 144.249, 615 173.460 L 623.500 180.634 629.500 178.741 C 638.420 175.928, 650.194 172.861, 650.583 173.250 C 650.771 173.438, 646.608 176.271, 641.333 179.546 C 636.058 182.821, 631.288 185.790, 630.732 186.145 C 630.169 186.504, 633.123 190.709, 637.405 195.645 C 661.728 223.678, 677.614 256.955, 683.166 291.500 C 685.102 303.544, 684.794 334.954, 682.597 349.500 C 674.931 400.260, 653.347 443.536, 618 479.020 C 601.193 495.892, 592.094 502.846, 560.103 523.269 C 551.913 528.498, 550.958 529.433, 549.906 533.269 C 547.348 542.596, 550.665 584.518, 556.505 616.655 C 563.435 654.787, 578.903 704.318, 587.334 715.371 C 592.445 722.072, 600.140 722.563, 606.471 716.592 C 611.342 711.999, 611.144 708.652, 605.119 693.652 C 588.695 652.763, 577.429 601.434, 575.315 557.866 L 574.702 545.231 589.771 535.153 C 608.785 522.437, 622.745 511.245, 635.495 498.495 C 671.495 462.494, 695.356 417.609, 705.396 367 C 709.250 347.576, 710.303 333.437, 709.702 309.193 C 709.080 284.106, 707.686 275.758, 700.531 254.283 C 671.700 167.744, 589.032 104.260, 477.518 83.022 C 450.669 77.908, 438.095 76.813, 402.500 76.485 C 383.800 76.314, 363.853 76.555, 358.173 77.021 M 407.500 129.660 C 392.941 130.530, 374.785 133.808, 361.500 137.963 C 349.909 141.589, 335.656 147.001, 334.086 148.373 C 333.214 149.135, 331.064 150.486, 329.309 151.375 L 326.118 152.990 327.653 157.494 C 328.497 159.971, 329.590 162.246, 330.082 162.551 C 330.574 162.855, 329.572 165.887, 327.854 169.289 C 317.167 190.460, 310 224.405, 310 253.850 C 310 264.978, 312.056 287.635, 314.052 298.500 C 326.865 368.250, 363.954 422.515, 415.709 447.239 L 426.356 452.325 433.862 448.412 C 477.698 425.564, 515.232 384.183, 535.824 336 C 545.163 314.148, 550.763 294.251, 554.107 271.034 C 555.876 258.756, 556.129 253.240, 555.737 235.500 C 555.250 213.459, 554.191 205.686, 549.280 188.132 C 546.677 178.824, 546.618 178.728, 540.080 173.263 C 525.072 160.717, 494.419 143.114, 481.500 139.624 C 461.138 134.123, 455.983 132.931, 446.363 131.503 L 435.500 129.890 433.462 132.445 C 431.822 134.501, 430.554 134.999, 426.962 134.994 C 423.055 134.988, 422.288 134.615, 420.797 131.994 C 418.980 128.801, 419.709 128.929, 407.500 129.660 M 306.403 147.581 C 295.540 154.390, 289 159.374, 280.043 167.666 C 276.281 171.150, 272.552 174, 271.758 174 C 270.963 174, 267.697 173.100, 264.500 172 C 261.303 170.900, 258.393 170, 258.035 170 C 257.676 170, 255.919 172.727, 254.129 176.060 L 250.876 182.120 254.438 186.063 C 256.397 188.232, 258 190.439, 258 190.968 C 258 191.498, 255.122 196.334, 251.604 201.715 C 248.086 207.097, 243.270 215.419, 240.901 220.209 L 236.595 228.918 230.127 229.209 L 223.659 229.500 221.280 236.648 L 218.901 243.797 223.610 248.246 L 228.320 252.695 226.692 259.176 C 224.457 268.073, 222.009 283.585, 222.004 288.881 L 222 293.262 225.500 292.694 L 229 292.126 229 299.630 C 229 306.938, 228.941 307.118, 226.750 306.488 C 225.512 306.132, 223.713 305.622, 222.750 305.353 C 221.545 305.017, 221.003 305.431, 221.009 306.683 C 221.034 312.149, 223.243 332.592, 224.554 339.500 C 226.033 347.296, 226.020 347.535, 224.036 348.872 C 221.888 350.319, 221.509 353.394, 222.636 360.216 C 223.194 363.590, 223.615 364.004, 227.205 364.716 C 231.076 365.483, 231.230 365.681, 234.460 374.036 C 238.604 384.757, 244.731 397, 245.953 397 C 246.988 397, 257.759 388.989, 265.642 382.356 L 270.784 378.030 274.427 384.146 C 276.431 387.510, 277.942 390.375, 277.785 390.513 C 277.628 390.651, 271.200 393.360, 263.500 396.534 C 255.800 399.708, 249.309 402.465, 249.075 402.661 C 248.316 403.296, 259.707 419.259, 267.871 429 C 280.827 444.459, 283.190 447.001, 284.087 446.446 C 284.556 446.156, 287.766 448.131, 291.220 450.835 C 303.874 460.740, 320.785 470.371, 334.775 475.639 L 341.050 478.002 341.641 475.047 L 342.232 472.092 347.366 475.027 C 350.503 476.821, 352.500 478.650, 352.500 479.731 C 352.500 481.962, 357.641 483.320, 376.278 486.013 C 383.856 487.108, 392.065 488.454, 394.520 489.005 C 405.340 491.429, 415.206 492.088, 440.500 492.075 C 463.870 492.063, 468.979 491.776, 478.500 489.937 C 484.550 488.769, 490.239 487.758, 491.141 487.692 C 492.417 487.598, 492.027 486.649, 489.391 483.433 C 487.526 481.156, 486 479.050, 486 478.751 C 486 478.024, 495.994 471.639, 496.377 472.121 C 496.543 472.330, 497.854 475.425, 499.290 479 C 500.727 482.575, 501.924 484.938, 501.951 484.250 C 501.978 483.563, 502.563 482.996, 503.250 482.991 C 505.432 482.975, 526.189 472.409, 534.459 467.105 C 538.837 464.297, 542.938 462, 543.574 462 C 544.210 462, 545.894 462.915, 547.315 464.033 L 549.900 466.067 555.446 461.783 C 561.267 457.288, 561.689 456.276, 559.894 451.127 C 558.804 447.999, 558.923 447.817, 568.665 437.702 C 578.744 427.238, 592 411.038, 592 409.185 C 592 408.620, 587.727 406.051, 582.504 403.476 C 576.365 400.450, 573.257 398.390, 573.712 397.648 C 576.030 393.869, 580.222 387.981, 580.888 387.569 C 581.317 387.304, 583.656 389.129, 586.084 391.626 C 588.513 394.122, 592.145 397.482, 594.157 399.092 L 597.813 402.020 605.160 389.760 C 609.202 383.017, 613.856 374.914, 615.504 371.752 L 618.500 366.005 625.066 366.002 L 631.632 366 634.508 359.983 L 637.384 353.967 633.043 349.544 L 628.702 345.121 630.300 339.311 C 632.256 332.192, 634 316.706, 634 306.447 L 634 298.816 628.750 299.158 L 623.500 299.500 623.177 295.544 C 623 293.368, 623.123 290.156, 623.452 288.405 C 624.034 285.299, 624.140 285.243, 627.775 286.087 C 629.824 286.563, 631.896 286.963, 632.379 286.976 C 633.521 287.007, 632.403 275.830, 630.153 264.716 L 628.381 255.963 631.119 253.731 C 633.810 251.538, 633.838 251.396, 632.808 245.363 L 631.760 239.226 627.130 238.586 L 622.500 237.947 619.118 229.723 C 617.258 225.201, 613.470 217.490, 610.701 212.589 L 605.666 203.678 608.544 201.384 L 611.421 199.089 610.285 192.452 C 609.659 188.801, 608.924 185.591, 608.651 185.318 C 608.379 185.045, 604.901 185.327, 600.923 185.944 L 593.692 187.066 584.596 178.184 C 573.611 167.458, 556.942 154.810, 557.007 157.250 C 557.010 157.387, 558.544 163.575, 560.415 171 C 566.374 194.645, 567.459 204.353, 567.402 233.500 C 567.332 269.762, 564.285 288.373, 554.308 313.500 C 533.630 365.577, 495.787 415.265, 457.014 441.247 C 442.001 451.307, 434.079 454.950, 428.732 454.253 C 426.404 453.949, 424.275 453.405, 424 453.044 C 423.725 452.684, 420.575 451.349, 417 450.079 C 374.736 435.063, 336.585 393.185, 315.587 338.760 C 304.562 310.182, 299.181 283.317, 298.297 252.428 C 297.498 224.510, 299.565 206.687, 307.103 176.500 C 309.674 166.206, 315.036 147.674, 316.697 143.346 C 317.596 141.005, 315.549 141.847, 306.403 147.581 M 439.655 258.829 C 438.745 259.835, 438 261.635, 438 262.829 C 438 265.319, 441.280 269, 443.500 269 C 445.561 269, 449 265.388, 449 263.223 C 449 258.020, 442.958 255.179, 439.655 258.829 M 560 475.313 C 560 475.485, 561.462 476.948, 563.250 478.563 L 566.500 481.500 563.563 478.250 C 560.825 475.221, 560 474.540, 560 475.313 M 573.226 489.579 C 574.176 490.570, 575.168 491.166, 575.431 490.903 C 575.694 490.640, 574.917 489.829, 573.705 489.100 C 571.598 487.835, 571.577 487.857, 573.226 489.579 M 494.100 490.705 C 494.829 491.917, 495.640 492.694, 495.903 492.431 C 496.166 492.168, 495.570 491.176, 494.579 490.226 C 492.857 488.577, 492.835 488.598, 494.100 490.705 M 506.564 498.293 C 506.940 499.279, 507.499 499.834, 507.807 499.526 C 508.115 499.219, 507.808 498.412, 507.124 497.733 C 506.136 496.753, 506.022 496.868, 506.564 498.293" stroke="none" fill="black" fill-rule="evenodd"/>
</svg>