<?xml version="1.0" encoding="UTF-8" standalone="no"?>
<svg
   xmlns:dc="http://purl.org/dc/elements/1.1/"
   xmlns:cc="http://creativecommons.org/ns#"
   xmlns:rdf="http://www.w3.org/1999/02/22-rdf-syntax-ns#"
   xmlns:svg="http://www.w3.org/2000/svg"
   xmlns="http://www.w3.org/2000/svg"
   xmlns:sodipodi="http://sodipodi.sourceforge.net/DTD/sodipodi-0.dtd"
   xmlns:inkscape="http://www.inkscape.org/namespaces/inkscape"
   width="57.245029mm"
   height="50.800011mm"
   viewBox="0 0 57.245029 50.800011"
   version="1.1"
   id="svg2670"
   inkscape:version="1.0.1 (3bc2e813f5, 2020-09-07)"
   sodipodi:docname="highscore.svg">
  <defs
     id="defs2664" />
  <sodipodi:namedview
     id="base"
     pagecolor="#ffffff"
     bordercolor="#666666"
     borderopacity="1.0"
     inkscape:pageopacity="0.0"
     inkscape:pageshadow="2"
     inkscape:zoom="0.35"
     inkscape:cx="13.893858"
     inkscape:cy="170.28573"
     inkscape:document-units="mm"
     inkscape:current-layer="layer1"
     inkscape:document-rotation="0"
     showgrid="false"
     fit-margin-top="0"
     fit-margin-left="0"
     fit-margin-right="0"
     fit-margin-bottom="0"
     inkscape:window-width="1212"
     inkscape:window-height="1080"
     inkscape:window-x="1972"
     inkscape:window-y="52"
     inkscape:window-maximized="0" />
  <metadata
     id="metadata2667">
    <rdf:RDF>
      <cc:Work
         rdf:about="">
        <dc:format>image/svg+xml</dc:format>
        <dc:type
           rdf:resource="http://purl.org/dc/dcmitype/StillImage" />
        <dc:title></dc:title>
      </cc:Work>
    </rdf:RDF>
  </metadata>
  <g
     inkscape:label="Ebene 1"
     inkscape:groupmode="layer"
     id="layer1"
     transform="translate(-102.15725,-103.1119)">
    <path
       style="fill:#ffffff;stroke-width:1"
       d="m 130.85287,153.91191 h -11.08885 l -0.67682,-0.5324 -0.67683,-0.53239 -0.16939,-0.77121 -0.16938,-0.77121 0.41639,-0.80522 0.4164,-0.80522 0.50903,-0.27243 0.50903,-0.27242 h 4.25073 4.25073 v -3.05121 -3.05121 l -0.36245,-0.86746 -0.36244,-0.86745 -1.09273,-0.93534 -1.09274,-0.93534 -2.05055,-0.58428 -2.05055,-0.58429 -1.85208,-0.68655 -1.85209,-0.68655 -1.5875,-0.78813 -1.5875,-0.78814 -1.75215,-1.12963 -1.75215,-1.12962 -1.88852,-1.78153 -1.88851,-1.78153 -1.22289,-1.83948 -1.22288,-1.83948 -0.79857,-1.89629 -0.79857,-1.89629 -0.3599,-1.32291 -0.3599,-1.32292 -0.16599,-2.39483 -0.166,-2.39483 0.191,-1.78347 0.19099,-1.78347 0.61571,-0.71649 0.6157,-0.71649 5.51361,-0.1323 5.51361,-0.13229 0.0262,-1.19062 0.0263,-1.19063 0.0399,-0.89102 0.0399,-0.89102 1.0272,-1.02721 1.02721,-1.02721 h 13.79335 13.79334 l 0.98831,0.90482 0.9883,0.90482 0.13229,2.20404 0.13229,2.20403 5.48344,0.13229 5.48345,0.1323 0.55468,0.55537 0.55468,0.55537 0.24679,1.03213 0.24678,1.03213 0.01,2.32036 0.01,2.32037 -0.28358,1.56385 -0.28358,1.56384 -0.54702,1.66633 -0.54703,1.66632 -0.66691,1.32863 -0.6669,1.32863 -1.1288,1.5875 -1.1288,1.5875 -1.68386,1.60459 -1.68385,1.60459 -1.68735,1.14014 -1.68736,1.14013 -2.41369,1.14272 -2.41369,1.14271 -2.24896,0.70376 -2.24895,0.70376 -1.1523,0.40224 -1.15229,0.40225 -0.93764,0.82325 -0.93764,0.82326 -0.35746,0.85553 -0.35747,0.85553 v 3.05121 3.05121 h 4.37765 4.37766 l 0.64943,0.64943 0.64943,0.64943 v 1.08239 1.08238 l -0.64943,0.64943 -0.64943,0.64944 h -11.0896 z m -0.0477,-16.13959 h 0.19719 l 1.07557,-1.16686 1.07558,-1.16686 1.99839,-2.6852 1.99839,-2.6852 0.90882,-1.90262 0.90882,-1.90263 0.67444,-2.11667 0.67445,-2.11667 0.38769,-1.71979 0.38769,-1.71979 0.28045,-2.56926 0.28044,-2.56926 v -2.79149 -2.79149 l -10.91407,0.0691 -10.91406,0.0691 0.0661,2.91041 0.0661,2.91042 0.28707,2.51354 0.28706,2.51354 0.36732,1.59815 0.36731,1.59815 0.68484,2.10602 0.68484,2.10602 0.91219,1.90263 0.9122,1.90262 1.99839,2.6852 1.99839,2.6852 1.07557,1.16686 1.07558,1.16686 z m -10.58006,-5.02708 h 0.23939 l -1.04536,-1.93803 -1.04536,-1.93803 -1.04477,-3.18167 -1.04476,-3.18167 -0.52811,-2.88395 -0.52811,-2.88394 -0.16619,-1.26375 -0.16619,-1.26374 -3.88534,0.0731 -3.88535,0.0731 0.0606,1.85208 0.0607,1.85208 0.2718,1.27786 0.2718,1.27785 0.8843,1.89715 0.88429,1.89714 1.23386,1.62808 1.23385,1.62808 1.93054,1.47867 1.93053,1.47867 2.04924,1.06044 2.04925,1.06044 z m 21.52425,-0.1506 0.56518,-0.16713 1.7198,-0.92484 1.71979,-0.92484 1.45521,-1.08841 1.4552,-1.08842 1.40677,-1.4659 1.40676,-1.4659 1.16549,-2.38125 1.16549,-2.38125 0.40431,-2.03937 0.40431,-2.03937 v -1.20178 -1.20178 h -3.94044 -3.94044 l -0.1606,0.41852 -0.1606,0.41851 v 0.89097 0.89097 l -0.54869,2.84323 -0.54868,2.84322 -1.03021,3.13733 -1.03021,3.13734 -1.03681,1.97864 -1.03681,1.97864 z"
       id="path879" />
  </g>
</svg>
