<svg xmlns="http://www.w3.org/2000/svg" width="850" height="850" viewBox="0 0 850 850" version="1.1">
	<path d="M 394.500 118.637 C 359.960 121.548, 335.188 126.837, 305.906 137.552 C 296.296 141.069, 271.075 152.709, 269.182 154.502 C 268.566 155.084, 272.006 165.344, 273.883 168.527 L 275.783 171.747 270.477 182.623 C 257.234 209.768, 248.594 242.969, 245.007 280.500 C 243.738 293.779, 243.763 330.503, 245.051 345.500 C 251.193 416.990, 275.714 484.726, 313.969 535.870 C 337.642 567.520, 365.450 592.077, 397.194 609.366 C 406.903 614.654, 423.355 622, 425.488 622 C 427.828 622, 450.789 609.201, 464 600.534 C 470.875 596.023, 481.675 588.321, 488 583.419 C 502.409 572.252, 532.877 542.031, 544.376 527.500 C 600.115 457.062, 630.243 367.915, 627.681 281 C 626.984 257.337, 624.625 239.668, 619.373 218.769 C 613.757 196.427, 613.222 195.342, 604.007 187.628 C 574.689 163.087, 539.250 143.419, 505 132.681 C 485.568 126.589, 466.007 122.368, 447.036 120.174 C 440.118 119.374, 439.443 119.464, 437.806 121.405 C 432.140 128.128, 433.015 127.717, 425.706 127.086 C 419.030 126.510, 418.872 126.430, 416.677 122.500 L 414.443 118.500 406.472 118.400 C 402.087 118.345, 396.700 118.452, 394.500 118.637 M 241.394 143.863 C 223.958 154.469, 210.283 164.869, 194 179.908 L 184.500 188.682 181 187.417 C 179.075 186.721, 177.021 186.118, 176.435 186.076 C 175.047 185.977, 162.067 210.949, 162.167 213.527 C 162.208 214.612, 157.972 221.877, 152.752 229.672 C 147.532 237.467, 139.940 250.591, 135.881 258.838 L 128.500 273.831 124.065 274.166 L 119.631 274.500 114.746 289.873 L 109.861 305.246 112.538 308.039 L 115.214 310.833 112.640 321.667 C 108.444 339.325, 104.334 366.825, 105.161 371.708 C 105.498 373.695, 105.586 373.693, 119 371.395 C 126.425 370.123, 132.613 369.064, 132.750 369.041 C 132.887 369.019, 133 375.750, 133 384 C 133 395.338, 132.695 398.998, 131.750 398.991 C 131.063 398.985, 126.225 398.137, 121 397.105 C 115.775 396.073, 109.774 394.924, 107.666 394.553 L 103.831 393.878 104.471 404.189 C 106.156 431.360, 110.671 459.939, 113.047 458.471 C 113.571 458.147, 114.004 458.471, 114.009 459.191 C 114.013 459.911, 114.685 466.125, 115.500 473 C 116.315 479.875, 116.987 485.837, 116.991 486.250 C 116.996 486.663, 117.596 487, 118.325 487 C 119.093 487, 121.240 491.311, 123.432 497.250 C 127.525 508.345, 140.126 535.342, 141.652 536.285 C 142.726 536.949, 161.752 522.751, 177.547 509.500 C 183.447 504.550, 189.529 499.481, 191.063 498.236 L 193.852 495.971 201.481 508.630 C 205.677 515.593, 208.748 521.600, 208.305 521.980 C 207.862 522.360, 201.650 524.828, 194.500 527.465 C 182.587 531.858, 149.051 545.682, 148.092 546.595 C 146.722 547.898, 169.309 578.127, 182.019 592 C 186.845 597.268, 187.120 597.418, 188.529 595.559 C 189.338 594.491, 190 593.029, 190 592.309 C 190 589.617, 192.072 591.254, 200.554 600.645 L 209.266 610.291 207.017 611.987 L 204.769 613.683 212.395 619.914 C 216.589 623.341, 225.623 629.922, 232.470 634.538 C 239.318 639.155, 244.600 643.122, 244.210 643.355 C 243.819 643.588, 239.900 644.781, 235.500 646.006 C 208.034 653.651, 192.552 664.469, 194.467 674.677 C 196.409 685.028, 218.767 696.134, 253.099 703.800 C 260.469 705.446, 267.921 707.045, 269.659 707.353 L 272.818 707.914 278.043 695.207 C 284.238 680.140, 293.121 655.879, 295.515 647.482 C 296.454 644.192, 297.522 641.172, 297.890 640.771 C 298.361 640.257, 318.583 651.426, 320.663 653.350 C 320.752 653.432, 317.377 658.019, 313.163 663.543 C 305.430 673.677, 283.438 705.696, 282.461 708.241 C 282.051 709.310, 284.671 709.998, 294.217 711.330 C 309.278 713.432, 340.361 716.575, 360.500 718.033 C 384.552 719.774, 455.560 720.401, 482.500 719.111 C 506.655 717.954, 541.242 715.344, 548.303 714.146 L 552.106 713.500 542.983 700.083 C 532.908 685.265, 526.965 677.216, 515.601 663 C 511.425 657.775, 508.022 653.275, 508.039 653 C 508.056 652.725, 513.116 649.476, 519.285 645.780 L 530.500 639.061 531.366 641.780 C 534.729 652.341, 558.012 711.345, 559.340 712.673 C 560.029 713.362, 588.834 708.779, 605.500 705.329 C 623.856 701.530, 645.079 695.015, 654.316 690.344 L 660.082 687.429 647.191 673.464 C 628.441 653.152, 614.976 641.589, 608.759 640.460 C 604.844 639.749, 604.529 638.015, 608.309 637.980 C 609.516 637.969, 615.438 634.111, 621.500 629.386 C 629.883 622.851, 632.580 620.179, 632.835 618.156 C 633.063 616.351, 637.086 611.495, 645.392 603 C 657.854 590.253, 667.758 578.768, 678.821 564.235 L 685.018 556.095 680.407 553.393 C 677.871 551.906, 667.629 546.880, 657.648 542.223 C 647.667 537.566, 639.386 533.660, 639.248 533.542 C 639.054 533.378, 654.111 510.900, 655.604 509.123 C 655.779 508.915, 662.352 514.928, 670.211 522.486 C 689.847 541.368, 692.754 543.702, 694.411 541.913 C 696.874 539.251, 708.742 519.503, 716.293 505.500 C 720.445 497.800, 724.777 490.417, 725.919 489.094 C 727.062 487.770, 731.430 480.151, 735.626 472.163 C 741.814 460.383, 743.050 457.310, 742.167 455.896 C 741.330 454.555, 741.618 452.807, 743.418 448.326 C 746.336 441.062, 748.822 421.879, 749.684 399.984 L 750.325 383.713 741.912 384.400 C 737.286 384.778, 729.759 385.564, 725.186 386.146 C 720.613 386.728, 716.670 387.004, 716.424 386.758 C 715.939 386.272, 717.810 357.857, 718.363 357.303 C 718.549 357.118, 725.293 358.623, 733.351 360.649 C 741.409 362.674, 748.225 364.109, 748.496 363.837 C 749.303 363.031, 746.072 340.396, 743.382 328 C 742.009 321.675, 740.043 310.471, 739.012 303.102 C 737.232 290.368, 736.376 288.057, 733.424 288.015 C 732.832 288.007, 730.417 283.387, 728.058 277.750 C 720.170 258.903, 706.696 234.796, 704.517 235.632 C 703.057 236.192, 703.153 236.545, 699.900 218.684 L 697.747 206.868 691.624 207.495 L 685.500 208.122 678.017 199.878 C 668.709 189.625, 651.780 175.079, 639.199 166.524 C 633.942 162.950, 629.515 160.152, 629.361 160.306 C 629.207 160.460, 629.991 163.492, 631.103 167.043 C 637.891 188.714, 643.920 221.074, 646.093 247.500 C 648.416 275.742, 646.302 323.189, 641.414 352.500 C 636.439 382.339, 621.984 420.318, 601.153 458.283 C 558.718 535.621, 502.085 595.411, 445.510 622.602 L 434.500 627.893 428 626.842 C 424.425 626.264, 421.273 625.427, 420.995 624.982 C 420.717 624.538, 415.767 622.398, 409.995 620.227 C 315.650 584.745, 244.363 479.098, 226.560 348.376 C 218.195 286.960, 225.548 226.685, 251.400 144.750 C 252.745 140.488, 253.543 137.024, 253.173 137.054 C 252.803 137.083, 247.502 140.147, 241.394 143.863 M 395 142.069 C 347.144 147.285, 304.631 164.188, 278.500 188.390 L 271.500 194.873 281.919 194.275 C 291.897 193.703, 292.305 193.758, 291.565 195.589 C 281.569 220.301, 275.107 244.903, 271.626 271.500 L 270.186 282.500 273.343 285.811 C 281.088 293.932, 301.311 304.477, 318.674 309.447 C 342.282 316.204, 377.156 318.668, 407 315.687 C 414.975 314.891, 421.611 314.334, 421.747 314.450 C 421.883 314.566, 421.512 317.273, 420.922 320.465 C 420.332 323.656, 420.158 328.570, 420.536 331.384 C 421.213 336.436, 423.407 342.926, 424.789 343.965 C 425.180 344.259, 427.221 346.641, 429.324 349.259 C 434.118 355.225, 440.295 358.180, 449.188 358.763 C 454.739 359.127, 456.661 358.810, 460.493 356.897 C 466.304 353.994, 473.512 346.358, 476.221 340.233 C 480.470 330.628, 479.406 316.592, 473.836 308.770 C 472.752 307.247, 472.061 306, 472.301 306 C 475.162 306, 527.814 296.351, 537.112 294.123 C 557.790 289.168, 572.880 282.885, 581.373 275.696 L 585.245 272.417 583.564 258.958 C 581.576 243.035, 578.002 224.718, 574.647 213.250 C 573.319 208.713, 572.560 205, 572.960 205 C 573.360 205, 576.323 205.907, 579.546 207.016 C 582.768 208.125, 585.801 208.900, 586.285 208.738 C 586.769 208.577, 585.035 205.532, 582.431 201.972 C 561.276 173.055, 518.805 151.894, 465 143.462 C 452.594 141.518, 408.167 140.634, 395 142.069 M 648 652.996 C 648 653.557, 650.210 659.300, 652.911 665.758 C 655.612 672.216, 658.383 679.413, 659.069 681.750 C 659.755 684.087, 660.829 686, 661.455 686 C 663.147 686, 669.729 678.903, 670.883 675.835 C 672.408 671.783, 670.537 666.718, 666.005 662.624 C 661.632 658.672, 648 651.383, 648 652.996" stroke="none" fill="black" fill-rule="evenodd"/>
</svg>