<svg xmlns="http://www.w3.org/2000/svg" width="800" height="651" viewBox="0 0 800 651" version="1.1">
	<path d="M 364.967 20.048 C 328.064 22.706, 286.380 33.976, 255.500 49.644 C 249.450 52.714, 244.342 55.371, 244.148 55.548 C 243.568 56.079, 247.087 66.262, 249.025 69.661 L 250.827 72.822 246.391 81.661 C 234.760 104.835, 225.958 135.300, 221.445 168 C 218.992 185.774, 218.418 228.731, 220.362 249 C 230.489 354.562, 277.350 444.975, 347.910 495.086 C 359.954 503.640, 378.233 514.025, 390.355 519.201 L 400.222 523.414 411.361 517.730 C 506.129 469.377, 577.892 367.621, 597.441 253.878 C 601.792 228.564, 602.502 219.715, 602.448 191.500 C 602.379 155.409, 599.296 133.524, 590.378 105.807 L 586.937 95.115 575.218 85.714 C 554.426 69.035, 538.303 58.846, 515.500 47.974 C 495.863 38.612, 481.898 33.591, 459.823 27.955 C 448.855 25.155, 423.904 21, 418.053 21 C 413.557 21, 413.101 21.249, 410.555 25.096 C 408.389 28.369, 407.408 29.075, 405.672 28.610 C 404.477 28.289, 401.372 28.021, 398.770 28.014 C 394.289 28.001, 393.937 27.796, 392.063 24.123 C 390.975 21.991, 389.354 19.966, 388.461 19.623 C 386.531 18.883, 379.340 19.013, 364.967 20.048 M 220.976 42.305 C 202.935 52.694, 187.928 63.751, 171.045 79.092 C 164.771 84.793, 158.772 89.447, 157.671 89.466 C 156.129 89.492, 153.986 92.745, 148.235 103.788 C 142.061 115.645, 140.554 117.874, 139.374 116.895 C 138.592 116.246, 137.747 115.919, 137.498 116.169 C 134.082 119.584, 116.384 148.663, 110.807 160.022 C 104.938 171.978, 103.091 174.915, 101.422 174.953 C 99.623 174.994, 98.637 177.221, 94.075 191.546 C 90.758 201.962, 89.027 208.971, 89.402 210.464 C 89.729 211.769, 88.869 217.607, 87.491 223.439 C 84.509 236.062, 81.355 255.352, 80.430 266.631 L 79.763 274.761 88.131 273.413 C 92.734 272.672, 100.662 271.232, 105.750 270.214 L 115 268.364 115 285.290 L 115 302.217 112.750 301.659 C 110.409 301.078, 87.978 296.640, 82.176 295.610 L 78.851 295.020 79.470 304.260 C 80.953 326.431, 83.493 346.376, 86.090 356.248 C 87.064 359.952, 87.105 359.977, 89.528 358.390 C 91.525 357.081, 92.060 357.035, 92.411 358.142 C 92.865 359.569, 94.837 377.916, 95.466 386.568 C 95.669 389.355, 97.283 395.430, 99.054 400.068 C 102.647 409.479, 113.995 433.537, 116.124 436.257 C 117.391 437.875, 118.669 437.116, 132.213 426.710 C 140.305 420.492, 152.783 410.364, 159.941 404.203 C 167.099 398.041, 173.139 393, 173.363 393 C 173.851 393, 188.660 417.852, 189.452 420 C 189.882 421.166, 186.844 422.578, 175.793 426.348 C 164.448 430.217, 124.826 446.232, 123.093 447.648 C 122.484 448.146, 133.425 464.389, 140.507 473.500 C 148.265 483.481, 160.949 497.500, 162.221 497.500 C 162.746 497.500, 164.151 495.190, 165.345 492.367 L 167.515 487.234 177.257 498.082 C 182.616 504.048, 187 509.293, 187 509.738 C 187 510.182, 185.428 511.392, 183.506 512.427 C 180.817 513.875, 180.262 514.611, 181.098 515.618 C 183.368 518.353, 202.546 532.476, 213.509 539.485 L 224.938 546.792 215.272 549.921 C 191.871 557.496, 179.280 567.010, 181.412 575.506 C 183.108 582.263, 195.556 590.732, 212 596.317 C 218.206 598.424, 233.939 602.602, 246.158 605.386 C 248.723 605.971, 248.973 605.615, 253.305 595.246 C 259.004 581.605, 265.789 562.918, 270.698 547.344 L 274.529 535.189 286.748 542.344 C 293.469 546.280, 298.975 549.828, 298.984 550.229 C 298.993 550.630, 296.061 554.628, 292.470 559.113 C 281.711 572.548, 258.283 606.616, 259.183 607.517 C 260.842 609.175, 315.452 615.199, 346.500 617.148 C 371.389 618.710, 445.565 618.726, 469 617.174 C 493.929 615.523, 522.280 612.888, 523.770 612.084 C 525.834 610.969, 504.041 580.035, 486.270 558.854 C 482.140 553.932, 478.927 549.780, 479.131 549.627 C 483.804 546.111, 503.454 535.079, 503.985 535.675 C 504.389 536.129, 505.959 540.325, 507.474 545 C 515.486 569.723, 532.616 611.001, 534.863 610.996 C 538.018 610.989, 565.977 606.063, 577.682 603.453 C 599.216 598.651, 624.004 589.315, 627.999 584.501 C 629.642 582.522, 627.532 579.795, 612.888 564.976 C 597.613 549.518, 595.970 548.377, 584.959 545.594 L 575.688 543.250 578.443 541.446 C 579.958 540.453, 581.490 538.877, 581.849 537.944 C 582.207 537.010, 588.800 531.297, 596.500 525.248 C 611.209 513.692, 627.344 497.834, 640.348 482.152 C 650.672 469.702, 659 458.575, 659 457.231 C 659 456.154, 631.770 442.457, 616.750 435.981 C 612.487 434.142, 609 432.222, 609 431.712 C 609 431.006, 624.696 407.330, 626.677 405.049 C 626.892 404.801, 631.665 409.403, 637.284 415.274 C 648.170 426.651, 666.734 444, 668.020 444 C 669.661 444, 688.925 412.123, 696.964 396.108 L 700.172 389.716 697.107 390.329 L 694.042 390.942 700.571 378.721 C 704.162 371.999, 708.523 363.690, 710.263 360.255 C 712.207 356.414, 713.984 354.104, 714.878 354.255 C 719.147 354.975, 723.486 331.414, 724.683 301.008 L 725.323 284.763 716.911 285.465 C 712.285 285.850, 703.377 286.818, 697.115 287.615 C 690.854 288.412, 685.526 288.859, 685.276 288.610 C 684.780 288.113, 686.784 256.882, 687.349 256.318 C 687.539 256.127, 693.276 257.491, 700.098 259.348 C 716.128 263.712, 723.011 265.323, 723.508 264.825 C 724.060 264.274, 721.311 243.266, 719.410 233.500 C 716.668 219.413, 716.108 217.831, 714.089 218.472 C 712.458 218.989, 712.118 217.705, 710.590 205.273 C 709.659 197.698, 708.467 190.825, 707.942 190 C 706.837 188.264, 707.139 188.939, 700.787 174 C 696.143 163.076, 687.351 146.354, 682.495 139.207 L 680.257 135.913 677.130 138.544 C 674.852 140.461, 673.881 140.812, 673.550 139.837 C 673.094 138.493, 668 110.753, 668 109.611 C 668 109.275, 666.313 109, 664.250 108.999 C 660.832 108.999, 659.837 108.274, 653.017 100.817 C 643.842 90.786, 626.884 76.177, 615.212 68.250 C 603.385 60.217, 603.509 60.282, 604.402 62.586 C 606.261 67.385, 611.163 85.573, 613.448 96.152 C 619.607 124.665, 621.955 147.909, 621.969 180.500 C 621.994 238.140, 614.774 276.033, 595.205 320.969 C 582.843 349.355, 562.601 384.832, 543.731 411.186 C 506.484 463.206, 464.968 501.483, 423.545 521.994 L 409.500 528.949 403 527.870 C 399.425 527.277, 396.275 526.436, 396 526.002 C 395.725 525.568, 391 523.544, 385.500 521.504 C 336.116 503.186, 290.766 463.863, 258.088 411.024 C 226.864 360.538, 207.994 304.665, 200.327 240 C 197.953 219.977, 197.993 178.944, 200.406 159 C 204.481 125.328, 212.035 91.828, 224.814 50.750 C 226.995 43.737, 228.706 38, 228.616 38 C 228.525 38, 225.087 39.937, 220.976 42.305 M 366 43.540 C 318.549 49.508, 278.167 66.008, 253.236 89.616 L 246.500 95.995 256.916 95.343 C 265.642 94.797, 267.240 94.919, 266.765 96.096 C 266.453 96.868, 264.836 100.875, 263.172 105 C 256.014 122.744, 249.765 147.899, 246.528 172 L 244.983 183.500 250.399 188.519 C 265.158 202.196, 292.887 212.681, 324.500 216.538 C 335.532 217.884, 343.599 218.142, 362.552 217.752 L 386.604 217.258 386.178 226.163 C 385.770 234.691, 385.904 235.399, 389.356 242.951 C 394.586 254.392, 405.828 264.720, 415.112 266.614 C 421.538 267.925, 432.503 267.142, 437.455 265.019 C 443.724 262.332, 452.205 253.360, 456.257 245.129 C 459.291 238.966, 459.500 237.865, 459.500 228.021 C 459.500 218.685, 459.196 216.852, 456.805 211.750 C 455.323 208.588, 454.442 206, 454.847 206 C 456.887 206, 496.973 198.644, 506.796 196.466 C 529.606 191.411, 547.891 184.128, 556.536 176.655 L 560.262 173.435 559.054 162.967 C 557.266 147.459, 555.383 137.140, 551.424 121.148 C 549.470 113.254, 548.068 106.599, 548.308 106.358 C 548.549 106.118, 551.781 107.064, 555.492 108.461 C 559.202 109.857, 562.426 111, 562.656 111 C 564.095 111, 553.360 97.260, 547.030 91 C 523.669 67.897, 487.469 52.096, 440.323 44.426 C 426.281 42.141, 381.375 41.606, 366 43.540 M 627 563.434 C 627 564.333, 632.373 576.540, 633.169 577.450 C 633.629 577.976, 634 576.454, 634 574.044 C 634 570.916, 633.281 568.747, 631.449 566.344 C 629.259 563.474, 627 561.996, 627 563.434" stroke="none" fill="black" fill-rule="evenodd"/>
</svg>