<svg xmlns="http://www.w3.org/2000/svg" width="850" height="850" viewBox="0 0 850 850" version="1.1">
	<path d="M 390 119.098 C 360.707 121.168, 336.617 126.726, 299.500 139.979 C 294.682 141.700, 270.438 153.313, 269.182 154.502 C 268.566 155.084, 272.006 165.344, 273.883 168.527 L 275.783 171.747 270.477 182.623 C 257.234 209.768, 248.594 242.969, 245.007 280.500 C 243.738 293.779, 243.763 330.503, 245.051 345.500 C 251.193 416.990, 275.714 484.726, 313.969 535.870 C 337.642 567.520, 365.450 592.077, 397.194 609.366 C 406.903 614.654, 423.355 622, 425.488 622 C 427.828 622, 450.789 609.201, 464 600.534 C 484.201 587.280, 498.339 575.662, 517.585 556.503 C 537.059 537.118, 548.034 523.978, 561.853 503.500 C 619.847 417.565, 641.851 308.400, 619.300 218.506 C 613.620 195.866, 613.444 195.531, 602.369 186.412 C 579.179 167.316, 554.747 152.631, 523.856 139.222 C 510.137 133.267, 476.887 124.500, 456.872 121.561 C 440.049 119.090, 438.766 119.244, 435.547 124.108 C 433.109 127.792, 432.515 128.153, 429.789 127.608 C 428.118 127.274, 425.015 127, 422.895 127 C 419.425 127, 418.843 126.613, 417.063 123.123 C 415.975 120.991, 414.354 118.966, 413.461 118.623 C 411.525 117.881, 405.508 118.002, 390 119.098 M 241 144.149 C 223.105 155.119, 210.251 164.898, 194 179.908 L 184.500 188.682 181 187.417 C 179.075 186.721, 177.021 186.118, 176.435 186.076 C 175.050 185.977, 162.069 210.944, 162.162 213.527 C 162.202 214.612, 157.904 222, 152.612 229.943 C 147.320 237.887, 139.730 251.012, 135.745 259.109 L 128.500 273.831 124.065 274.166 L 119.631 274.500 114.746 289.873 L 109.861 305.246 112.516 308.017 L 115.172 310.789 112.141 324.144 C 108.961 338.157, 106.543 353.262, 105.409 366.191 C 104.779 373.378, 104.858 373.856, 106.617 373.487 C 107.653 373.270, 113 372.373, 118.500 371.492 C 124 370.612, 129.512 369.642, 130.750 369.338 L 133 368.783 133 383.892 C 133 395.317, 132.695 398.998, 131.750 398.991 C 131.063 398.985, 126.225 398.137, 121 397.105 C 115.775 396.073, 109.795 394.928, 107.710 394.561 L 103.920 393.894 104.511 403.197 C 105.583 420.087, 107.043 433.348, 109.092 444.817 C 111.383 457.640, 111.847 459.213, 113.105 458.435 C 113.597 458.131, 114.004 458.471, 114.009 459.191 C 114.013 459.911, 114.685 466.125, 115.500 473 C 116.315 479.875, 116.987 485.837, 116.991 486.250 C 116.996 486.663, 117.596 487, 118.325 487 C 119.092 487, 121.243 491.313, 123.436 497.250 C 127.326 507.778, 138.671 532.141, 141.124 535.234 C 142.388 536.827, 143.493 536.215, 154.660 527.734 C 161.348 522.655, 171.647 514.450, 177.547 509.500 C 183.447 504.550, 189.529 499.481, 191.063 498.236 L 193.852 495.971 201.481 508.630 C 205.677 515.593, 208.748 521.600, 208.305 521.980 C 207.862 522.360, 201.650 524.828, 194.500 527.465 C 182.464 531.903, 149.045 545.687, 148.074 546.612 C 147.484 547.175, 159.638 565.004, 166.771 574.036 C 173.189 582.163, 185.863 596.289, 187.240 596.850 C 187.712 597.042, 188.625 595.805, 189.268 594.100 C 189.912 592.395, 190.754 591, 191.141 591 C 191.527 591, 195.763 595.340, 200.554 600.645 L 209.266 610.291 206.982 612.014 L 204.698 613.736 212.162 619.667 C 228.088 632.323, 244.793 642.981, 262.250 651.624 C 267.613 654.279, 272 656.764, 272 657.146 C 272 657.528, 270.538 658.139, 268.750 658.503 C 264.106 659.448, 258.899 661.063, 256 662.458 C 254.625 663.119, 252.293 663.541, 250.818 663.395 C 249.343 663.250, 247.623 663.749, 246.995 664.506 C 246.367 665.262, 245.230 665.642, 244.468 665.349 C 243.656 665.038, 242.339 665.995, 241.291 667.659 C 239.516 670.474, 237.596 671.134, 235.322 669.709 C 233.887 668.810, 232.687 672.021, 233.584 674.359 C 234.454 676.626, 232.792 676.411, 229.514 673.833 L 226.759 671.665 227.517 674.083 C 227.933 675.412, 228.522 677.175, 228.824 678 C 229.297 679.288, 229.136 679.306, 227.687 678.128 C 226.430 677.105, 226 677.068, 226 677.985 C 226 678.744, 225.332 678.958, 224.252 678.543 C 223.119 678.108, 223.496 678.909, 225.324 680.817 C 228.908 684.557, 237.632 689.346, 239.152 688.406 C 239.837 687.983, 240.039 688.127, 239.648 688.760 C 238.756 690.203, 241.095 690.938, 243.178 689.868 C 245.233 688.813, 248.232 689.815, 247.340 691.259 C 246.983 691.837, 247.163 692.018, 247.739 691.661 C 248.315 691.305, 250.727 691.698, 253.099 692.535 C 255.471 693.372, 258.017 693.824, 258.757 693.540 C 259.498 693.255, 259.858 693.420, 259.559 693.905 C 259.259 694.391, 260.023 694.794, 261.257 694.802 C 267.515 694.843, 275.041 696.558, 276.088 698.182 C 276.816 699.311, 284.405 680.096, 292.155 657.500 C 295.816 646.829, 298.437 640.618, 299.196 640.818 C 299.861 640.992, 305.016 643.900, 310.650 647.278 C 317.057 651.120, 320.590 653.811, 320.082 654.461 C 307.982 669.921, 285.157 702.641, 288.133 700.259 C 288.986 699.576, 289.886 699.220, 290.134 699.467 C 290.381 699.714, 292.815 700.125, 295.542 700.379 C 298.269 700.633, 302.975 701.194, 306 701.625 C 309.025 702.056, 311.813 702.324, 312.195 702.222 C 312.578 702.120, 317.395 702.710, 322.901 703.533 C 328.406 704.356, 333.268 704.940, 333.705 704.830 C 334.142 704.720, 338.775 705.017, 344 705.490 C 349.225 705.963, 355.525 706.430, 358 706.527 C 395.295 708.001, 416.625 708.496, 442 708.474 C 470.793 708.450, 516.765 707.263, 517.979 706.513 C 518.285 706.324, 523.252 705.882, 529.017 705.530 C 534.783 705.178, 540.518 704.640, 541.763 704.334 C 543.008 704.027, 544.777 704.389, 545.695 705.138 C 549.359 708.127, 528.070 678.578, 511.797 658.089 C 509.434 655.113, 507.950 652.514, 508.500 652.314 C 509.050 652.114, 514.206 649.052, 519.958 645.509 L 530.417 639.067 534.211 649.783 C 536.297 655.677, 541.941 670.296, 546.752 682.268 L 555.500 704.036 558.269 703.434 C 559.792 703.103, 562.942 702.668, 565.269 702.467 C 567.596 702.265, 569.500 702.041, 569.500 701.969 C 569.500 701.833, 570.439 701.715, 580.500 700.591 C 583.800 700.222, 588.198 699.468, 590.273 698.916 C 592.348 698.363, 594.486 698.182, 595.023 698.514 C 595.560 698.846, 596 698.656, 596 698.090 C 596 697.525, 596.597 697.292, 597.328 697.572 C 598.058 697.852, 599.912 697.604, 601.449 697.019 C 603.165 696.367, 604.679 696.312, 605.372 696.877 C 606.079 697.453, 608.687 697.116, 612.361 695.972 C 615.584 694.969, 618.921 694.416, 619.775 694.744 C 620.790 695.133, 621.080 694.938, 620.612 694.181 C 620.154 693.440, 620.422 693.225, 621.357 693.584 C 622.161 693.892, 626.284 692.543, 630.520 690.586 C 635.404 688.330, 637.724 687.631, 636.861 688.677 C 635.629 690.171, 635.716 690.212, 637.778 689.114 C 639.038 688.442, 639.751 687.406, 639.373 686.795 C 638.958 686.123, 639.150 685.974, 639.864 686.416 C 641.173 687.225, 646.642 684.158, 649.478 681.024 C 651.237 679.081, 651.424 679.066, 653.412 680.708 C 654.561 681.656, 652.851 679.672, 649.614 676.299 C 646.175 672.716, 643.161 670.385, 642.364 670.691 C 641.614 670.978, 641 670.668, 641 670 C 641 669.332, 640.337 669.040, 639.526 669.351 C 638.716 669.662, 637.653 669.203, 637.165 668.330 C 636.512 667.164, 636.080 667.062, 635.534 667.945 C 635.007 668.797, 634.358 668.528, 633.302 667.021 C 632.483 665.852, 631.293 665.085, 630.657 665.317 C 630.021 665.549, 628.772 665.107, 627.881 664.334 C 626.991 663.560, 624.741 662.771, 622.881 662.580 C 621.022 662.388, 618.825 661.992, 618 661.699 C 616.348 661.113, 611.350 659.801, 609 659.336 C 604.661 658.478, 602.038 657.936, 597.500 656.957 C 594.750 656.364, 591.260 655.702, 589.745 655.486 C 583.045 654.532, 583.567 653.656, 595.727 645.447 C 602.202 641.076, 608.261 637.500, 609.192 637.500 C 610.122 637.500, 615.859 633.675, 621.939 629 C 630.844 622.153, 632.995 620.009, 632.997 617.975 C 632.999 616.152, 635.118 613.371, 640.616 607.975 C 655.649 593.221, 684 559.290, 684 556.053 C 684 555.146, 662.617 544.343, 643.199 535.442 L 638.898 533.470 647.093 521.485 C 651.599 514.893, 655.430 509.330, 655.604 509.123 C 655.779 508.915, 662.352 514.928, 670.211 522.486 C 678.070 530.043, 686.456 537.840, 688.846 539.812 L 693.191 543.398 695.046 540.949 C 698.374 536.554, 713.686 510.754, 719.497 499.750 C 722.619 493.838, 725.519 489, 725.943 489 C 726.366 489, 730.438 481.950, 734.993 473.333 C 741.754 460.541, 743.072 457.344, 742.176 455.910 C 741.327 454.551, 741.609 452.831, 743.418 448.326 C 746.316 441.112, 748.758 422.281, 749.653 400.250 L 750.313 384 747.613 384 C 746.128 384, 738.581 384.698, 730.842 385.552 C 723.103 386.406, 716.592 386.926, 716.374 386.707 C 715.922 386.256, 717.846 357.821, 718.363 357.303 C 718.549 357.118, 725.293 358.623, 733.351 360.649 C 741.409 362.674, 748.204 364.129, 748.451 363.883 C 749.225 363.109, 745.956 340.016, 743.372 328 C 742.012 321.675, 740.244 311.775, 739.444 306 C 737.051 288.722, 737.212 289.271, 734.221 288.211 C 732.095 287.457, 730.978 285.854, 729.112 280.873 C 722.776 263.968, 706.847 234.738, 704.467 235.651 C 703.067 236.188, 703.132 236.431, 699.900 218.684 L 697.747 206.868 691.624 207.495 L 685.500 208.122 678.017 199.878 C 668.709 189.625, 651.780 175.079, 639.199 166.524 C 633.942 162.950, 629.515 160.152, 629.361 160.306 C 629.207 160.460, 629.991 163.492, 631.103 167.043 C 637.891 188.714, 643.920 221.074, 646.093 247.500 C 648.416 275.742, 646.302 323.189, 641.414 352.500 C 632.434 406.357, 593.541 482.843, 546.579 539 C 514.153 577.775, 480.002 606.024, 445.510 622.602 L 434.500 627.893 428 626.842 C 424.425 626.264, 421.273 625.427, 420.995 624.982 C 420.717 624.538, 415.767 622.398, 409.995 620.227 C 404.223 618.056, 394.802 613.920, 389.060 611.036 C 305.835 569.229, 243.522 469.513, 227.094 351.855 C 218.073 287.236, 224.984 228.335, 251.396 144.750 C 252.743 140.488, 253.543 137.022, 253.173 137.050 C 252.803 137.077, 247.325 140.271, 241 144.149 M 395 142.069 C 347.144 147.285, 304.631 164.188, 278.500 188.390 L 271.500 194.873 281.919 194.275 C 291.897 193.703, 292.305 193.758, 291.565 195.589 C 281.569 220.301, 275.107 244.903, 271.626 271.500 L 270.186 282.500 273.343 285.811 C 281.088 293.932, 301.311 304.477, 318.674 309.447 C 342.101 316.152, 377.146 318.658, 406.500 315.727 C 414.200 314.958, 420.603 314.395, 420.728 314.476 C 420.854 314.557, 420.524 317.283, 419.995 320.534 C 418.972 326.815, 420.295 339.214, 422.054 339.833 C 422.574 340.017, 423 340.580, 423 341.086 C 423 342.322, 428.957 351.757, 428.981 350.559 C 428.991 350.041, 429.563 350.371, 430.250 351.291 C 430.938 352.211, 434.170 354.322, 437.433 355.982 C 444.981 359.821, 454.264 360.192, 460.515 356.903 C 466.362 353.827, 472.732 347.236, 475.683 341.211 C 480.539 331.294, 479.728 317.045, 473.836 308.770 C 472.752 307.247, 472.061 306, 472.301 306 C 475.162 306, 527.814 296.351, 537.112 294.123 C 557.776 289.171, 572.881 282.885, 581.357 275.709 L 585.214 272.443 583.576 258.972 C 581.685 243.409, 578.125 225.087, 574.692 213.250 C 573.377 208.713, 572.612 205, 572.994 205 C 573.375 205, 576.323 205.907, 579.546 207.016 C 582.768 208.125, 585.801 208.900, 586.285 208.738 C 586.769 208.577, 585.035 205.532, 582.431 201.972 C 561.276 173.055, 518.805 151.894, 465 143.462 C 452.594 141.518, 408.167 140.634, 395 142.069 M 636.500 663 C 639.766 666.300, 642.662 669, 642.937 669 C 643.212 669, 640.766 666.300, 637.500 663 C 634.234 659.700, 631.338 657, 631.063 657 C 630.788 657, 633.234 659.700, 636.500 663 M 647.515 679.719 L 645.759 682.500 648.074 680.278 C 649.347 679.056, 650.137 677.804, 649.830 677.497 C 649.522 677.189, 648.481 678.189, 647.515 679.719" stroke="none" fill="black" fill-rule="evenodd"/>
</svg>