<?xml version="1.0" encoding="UTF-8" standalone="no"?>
<svg
   xmlns:dc="http://purl.org/dc/elements/1.1/"
   xmlns:cc="http://creativecommons.org/ns#"
   xmlns:rdf="http://www.w3.org/1999/02/22-rdf-syntax-ns#"
   xmlns:svg="http://www.w3.org/2000/svg"
   xmlns="http://www.w3.org/2000/svg"
   xmlns:sodipodi="http://sodipodi.sourceforge.net/DTD/sodipodi-0.dtd"
   xmlns:inkscape="http://www.inkscape.org/namespaces/inkscape"
   width="44.449997mm"
   height="50.799999mm"
   viewBox="0 0 44.449997 50.799999"
   version="1.1"
   id="svg1502"
   inkscape:version="1.0.1 (3bc2e813f5, 2020-09-07)"
   sodipodi:docname="levels.svg">
  <defs
     id="defs1496" />
  <sodipodi:namedview
     id="base"
     pagecolor="#ffffff"
     bordercolor="#666666"
     borderopacity="1.0"
     inkscape:pageopacity="0.0"
     inkscape:pageshadow="2"
     inkscape:zoom="0.35"
     inkscape:cx="49.714285"
     inkscape:cy="187.42857"
     inkscape:document-units="mm"
     inkscape:current-layer="layer1"
     inkscape:document-rotation="0"
     showgrid="false"
     fit-margin-top="0"
     fit-margin-left="0"
     fit-margin-right="0"
     fit-margin-bottom="0"
     inkscape:window-width="1212"
     inkscape:window-height="1080"
     inkscape:window-x="1946"
     inkscape:window-y="26"
     inkscape:window-maximized="0" />
  <metadata
     id="metadata1499">
    <rdf:RDF>
      <cc:Work
         rdf:about="">
        <dc:format>image/svg+xml</dc:format>
        <dc:type
           rdf:resource="http://purl.org/dc/dcmitype/StillImage" />
        <dc:title></dc:title>
      </cc:Work>
    </rdf:RDF>
  </metadata>
  <g
     inkscape:label="Ebene 1"
     inkscape:groupmode="layer"
     id="layer1"
     transform="translate(-92.679762,-98.57619)">
    <path
       style="fill:#ffffff;stroke-width:1"
       d="m 114.80535,149.34917 -16.966218,-0.027 -0.88039,-0.28172 -0.88038,-0.28173 -1.27862,-1.14958 -1.27861,-1.14958 -0.42069,-1.23465 -0.42068,-1.23465 v -20.01407 -20.01406 l 0.40604,-1.19167 0.40604,-1.19166 1.11531,-1.09347 1.11532,-1.09347 1.15774,-0.40783 1.15774,-0.40784 h 16.866808 16.8668 l 1.15774,0.40784 1.15775,0.40783 1.11531,1.09347 1.11531,1.09347 0.40605,1.19166 0.40604,1.19167 v 20.01406 20.01407 l -0.40604,1.19167 -0.40605,1.19166 -1.11531,1.09347 -1.11531,1.09347 -1.15775,0.40783 -1.15774,0.40783 z m 0.0994,-4.73549 h 16.40416 l 0.52917,-0.52916 0.52917,-0.52917 v -19.57917 -19.57916 l -0.52917,-0.52917 -0.52917,-0.52917 H 114.90476 98.500592 l -0.52917,0.52917 -0.52916,0.52917 v 19.57916 19.57917 l 0.52916,0.52917 0.52917,0.52916 z m -11.15848,-4.7625 h -2.25326 l -0.43788,-0.48385 -0.43788,-0.48385 v -2.25327 -2.25326 l 0.48385,-0.43788 0.48386,-0.43789 h 2.25326 2.25326 l 0.43788,0.48386 0.43789,0.48385 v 2.25326 2.25327 l -0.48386,0.43788 -0.48385,0.43788 z m 15.92098,-0.79375 h -7.97821 l -0.7734,-0.77339 -0.77339,-0.7734 v -0.83446 -0.83445 l 0.77339,-0.7734 0.7734,-0.7734 h 7.97821 7.9782 l 0.7734,0.7734 0.7734,0.7734 v 0.83445 0.83446 l -0.7734,0.7734 -0.7734,0.77339 z m -15.84499,-11.1125 h -0.60498 l -1.69689,-1.62944 -1.696888,-1.62943 v -0.73681 -0.73681 l 0.588028,-0.41188 0.58804,-0.41188 h 0.43392 0.43391 l 1.00473,0.79846 1.00473,0.79846 2.04398,-1.98908 2.04397,-1.98909 h 0.55955 0.55955 l 0.52917,0.52917 0.52917,0.52917 v 0.58208 0.58208 l -2.8575,2.8575 -2.8575,2.8575 z m 17.43249,-1.5875 h -6.39071 l -0.7734,-0.77339 -0.77339,-0.7734 v -0.83446 -0.83445 l 0.77339,-0.7734 0.7734,-0.7734 h 6.39071 6.3907 l 0.7734,0.7734 0.7734,0.7734 v 0.83445 0.83446 l -0.7734,0.7734 -0.7734,0.77339 z m -17.50847,-11.90625 h -2.25326 l -0.43788,-0.48385 -0.43788,-0.48385 v -2.25327 -2.25326 l 0.48385,-0.43788 0.48386,-0.43789 h 2.25326 2.25326 l 0.43788,0.48386 0.43789,0.48385 v 2.25327 2.25326 l -0.48386,0.43788 -0.48385,0.43788 z m 15.92098,-0.79375 h -7.97821 l -0.7734,-0.77339 -0.77339,-0.7734 v -0.83446 -0.83445 l 0.77339,-0.7734 0.7734,-0.7734 h 7.97821 7.9782 l 0.7734,0.7734 0.7734,0.7734 v 0.83445 0.83446 l -0.7734,0.7734 -0.7734,0.77339 z"
       id="path877" />
  </g>
</svg>
